<?xml version="1.0" encoding="utf-8"?>
<!-- Generator: Adobe Illustrator 21.0.0, SVG Export Plug-In . SVG Version: 6.00 Build 0)  -->
<svg version="1.1" id="Layer_1" xmlns="http://www.w3.org/2000/svg" xmlns:xlink="http://www.w3.org/1999/xlink" x="0px" y="0px"
	 viewBox="0 0 299.4 79.1" style="enable-background:new 0 0 299.4 79.1;" xml:space="preserve">
<style type="text/css">
	.st0{enable-background:new    ;}
	.st1{fill:#FFFFFF;}
</style>
<title>my_most_beautiful_nightmare</title>
<g class="st0">
	<path class="st1" d="M2.1,17.2l0,0.6c0,0.2,0,0.4-0.1,0.5c-0.1,0.1-0.2,0.2-0.4,0.2s-0.4,0-0.5-0.1s-0.2-0.2-0.2-0.4
		c0-0.2,0.1-1.9,0.2-5.1c0.2-3.2,0.2-5.7,0.2-7.3c0-0.3,0.1-0.6,0.2-0.7c0.1-0.1,0.2-0.2,0.4-0.2c0.2,0,0.3,0,0.3,0
		c0.1,0,0.1,0.1,0.1,0.1c0,0.1,0.1,0.1,0.1,0.2S2.5,5,2.5,5.1c0,0.1,0,0.2,0.1,0.2c0,0.1,0,0.1,0,0.3c0,0.1,0,0.2,0.1,0.4
		c0,0.1,0.1,0.6,0.3,1.4c0.2,0.8,0.4,1.9,0.6,3.2s0.5,3,0.8,5c0.4-2.2,0.8-4.4,1.1-6.4c0.3-2,0.5-3.1,0.5-3.2c0-0.1,0-0.2,0-0.3
		c0-0.1,0-0.2,0.1-0.3S6,5.2,6.1,5.2c0-0.1,0.1-0.1,0.1-0.2s0.1-0.2,0.2-0.2c0.1-0.1,0.3-0.2,0.5-0.2c0.2,0,0.3,0.1,0.5,0.2
		s0.2,0.2,0.2,0.4c0,3.1,0,5.3,0.1,6.5c0.1,1.2,0.1,1.9,0.1,2.2l0,3.3c0.1,0.1,0.1,0.3,0.1,0.5s-0.1,0.3-0.2,0.5
		c-0.1,0.2-0.2,0.3-0.4,0.3c-0.4,0-0.6-0.4-0.6-1.3l0-1.9c0-1.3,0-2.5,0-3.6c0-0.6,0-2.2,0-4.9c-0.2,1.3-0.5,3-0.9,5.2
		c-0.4,2.2-0.6,3.3-0.6,3.4s0,0.3-0.1,0.4C5,15.9,5,16,5,16c0,0.1,0,0.2-0.1,0.3c0,0.1-0.1,0.2-0.1,0.3c-0.1,0.2-0.3,0.3-0.5,0.3
		c-0.4,0-0.6-0.3-0.7-0.9c-0.1-0.8-0.3-2.3-0.7-4.4S2.4,8.1,2.2,7.4C2.1,12.1,2.1,15.3,2.1,17.2z"/>
	<path class="st1" d="M12.6,17c0,0.7-0.1,1.1-0.3,1.2c-0.1,0.1-0.2,0.1-0.4,0.1c-0.2,0-0.4-0.2-0.5-0.5c0.2-0.3,0.2-1.5,0.2-3.5
		c0-0.4,0-0.9-0.1-1.6c-0.1-0.7-0.1-1.2-0.1-1.4c-0.3-0.5-0.7-1.5-1.2-3.2C9.6,6.6,9.4,5.5,9.4,5.2V5l0.5-0.3c0.4,0,0.9,1.1,1.5,3.2
		c0.3,0.9,0.4,1.4,0.4,1.4c0.1-0.1,0.2-0.7,0.3-1.5c0.4-2.2,0.8-3.3,1.3-3.3c0.1,0,0.2,0,0.3,0.1c0.1,0.1,0.2,0.2,0.2,0.3
		c0,0.8-0.2,1.8-0.6,2.9c-0.4,1.1-0.6,2.1-0.6,3V17z"/>
	<path class="st1" d="M19.5,17.2l0,0.6c0,0.2,0,0.4-0.1,0.5c-0.1,0.1-0.2,0.2-0.4,0.2s-0.4,0-0.5-0.1c-0.1-0.1-0.2-0.2-0.2-0.4
		s0.1-1.9,0.2-5.1c0.1-3.2,0.2-5.7,0.2-7.3c0-0.3,0.1-0.6,0.2-0.7c0.1-0.1,0.2-0.2,0.4-0.2s0.3,0,0.3,0c0.1,0,0.1,0.1,0.1,0.1
		s0.1,0.1,0.1,0.2C19.9,4.9,20,5,20,5.1c0,0.1,0,0.2,0.1,0.2s0,0.1,0,0.3c0,0.1,0,0.2,0.1,0.4c0,0.1,0.1,0.6,0.3,1.4
		s0.4,1.9,0.6,3.2s0.5,3,0.8,5c0.4-2.2,0.8-4.4,1.1-6.4c0.3-2,0.5-3.1,0.5-3.2c0-0.1,0-0.2,0-0.3c0-0.1,0-0.2,0.1-0.3
		c0-0.1,0.1-0.2,0.1-0.3c0-0.1,0.1-0.1,0.1-0.2s0.1-0.2,0.1-0.2c0.1-0.1,0.3-0.2,0.5-0.2c0.2,0,0.3,0.1,0.5,0.2S25,4.9,25,5.1
		c0,3.1,0,5.3,0.1,6.5c0.1,1.2,0.1,1.9,0.1,2.2l0,3.3c0.1,0.1,0.1,0.3,0.1,0.5s-0.1,0.3-0.2,0.5s-0.2,0.3-0.4,0.3
		c-0.4,0-0.6-0.4-0.6-1.3l0-1.9c0-1.3,0-2.5,0-3.6c0-0.6,0-2.2,0-4.9c-0.2,1.3-0.5,3-0.9,5.2c-0.4,2.2-0.6,3.3-0.6,3.4
		s0,0.3-0.1,0.4s0,0.2,0,0.3c0,0.1,0,0.2-0.1,0.3c0,0.1-0.1,0.2-0.1,0.3c-0.1,0.2-0.3,0.3-0.5,0.3c-0.4,0-0.6-0.3-0.7-0.9
		c-0.1-0.8-0.3-2.3-0.7-4.4s-0.6-3.5-0.7-4.2C19.6,12.1,19.5,15.3,19.5,17.2z"/>
	<path class="st1" d="M32,12.5c0,3.9-0.8,5.9-2.4,5.9c-1.5,0-2.3-1.9-2.5-5.6c0-0.4,0-0.7,0-1.1l0-1.2v-0.4c0-2.9,0.4-4.7,1.3-5.3
		c0.2-0.2,0.4-0.3,0.7-0.3c0.2,0.1,0.4,0.1,0.7,0.2s0.5,0.1,0.6,0.2c0.2,0.1,0.5,0.4,0.8,0.9c0.3,0.5,0.5,1.1,0.6,1.9
		S32,9.3,32,10.1V12.5z M28.2,7.7l0,1.2l0,2c0,0.2,0,0.4,0,0.6c0,0.2,0,0.5,0,0.9c0,0.4,0,0.7,0.1,1.1c0,0.4,0.1,0.7,0.1,1.2
		s0.1,0.8,0.2,1.1c0.1,0.3,0.1,0.7,0.2,0.9c0.2,0.6,0.4,0.9,0.7,0.9c0.4,0,0.7-0.4,0.9-1.1c0.3-1.1,0.5-2.5,0.5-4.1l0-2.1
		c0-1.5-0.1-2.5-0.2-3c-0.1-0.5-0.3-0.9-0.4-1.2c-0.2-0.5-0.6-0.8-1-0.8c0,0,0,0,0,0C28.5,5.3,28.2,6.1,28.2,7.7z"/>
	<path class="st1" d="M33.7,17.2l1.1,0.2c0.3,0,0.5-0.1,0.7-0.3s0.3-0.5,0.4-0.9c0.2-0.7,0.3-1.2,0.3-1.7c0-0.5-0.1-1-0.2-1.5
		c-0.2-0.5-0.4-1-0.6-1.4c-0.2-0.4-0.5-0.9-0.7-1.3c-0.6-1-0.9-2.1-0.9-3.1c0-0.6,0.1-1.2,0.3-1.6c0.4-0.9,0.9-1.3,1.5-1.3
		c0.2,0,0.5,0.1,0.7,0.2s0.3,0.3,0.3,0.5c0,0.3-0.2,0.5-0.5,0.5c-0.1,0-0.3,0-0.4-0.1c-0.4,0-0.7,0.5-0.9,1.5c0,0.2,0,0.4,0,0.7
		c0,0.3,0.1,0.6,0.2,1c0.1,0.4,0.3,0.8,0.5,1.1c0.2,0.3,0.4,0.7,0.6,1.1c0.2,0.4,0.4,0.8,0.6,1.1c0.4,0.8,0.6,1.8,0.6,2.9
		c0,0.9-0.2,1.6-0.5,2.4c-0.2,0.4-0.4,0.7-0.8,0.9s-0.7,0.4-1.1,0.4v0c-0.3,0-0.5-0.1-0.7-0.3c-0.2-0.1-0.3-0.3-0.3-0.5V17.2z"/>
	<path class="st1" d="M40.7,16.1l0-0.7c-0.1-0.2-0.2-1.7-0.3-4.6c-0.2-2.9-0.3-4.7-0.3-5.3c-0.8,0-1.3-0.1-1.5-0.2
		c-0.2-0.1-0.3-0.3-0.3-0.4c0-0.1,0.1-0.2,0.2-0.3c0.1-0.1,0.3-0.1,0.4-0.1l2.8,0.2l0.3,0c0.4,0,0.6,0.2,0.6,0.5
		c0,0.2-0.1,0.3-0.2,0.4c-0.1,0.1-0.3,0.2-0.5,0.2l-0.9-0.1l0,0.2c0,1.3,0.1,3.2,0.3,5.8s0.3,4.5,0.3,5.8c0,0.2-0.1,0.3-0.2,0.4
		S41.4,18,41.2,18h-0.5L40.7,16.1z"/>
</g>
<g class="st0">
	<path class="st1" d="M3.2,30.7c0-0.9,0.4-1.4,1.1-1.4c0.5,0,1.4,0.2,2.8,0.6c1.4,0.4,2.1,0.8,2.1,1.1c0,0.1-0.1,0.1-0.1,0.2
		c0.7,1.1,1.1,2.1,1.3,3.2c0.2,1.1,0.3,2.7,0.3,4.8s-0.3,4-0.9,5.6H10c-0.1,0.3-0.4,0.8-0.8,1.4c-0.4,0.6-0.7,1-0.8,1.2
		c0.7,0.5,1.3,1.3,1.7,2.3c0.4,1,0.7,1.9,0.8,2.7c0.1,0.8,0.2,1.7,0.2,2.9l0.1,1.4v0.8c0,3.5-1.1,6-3.2,7.7
		c-1.1,0.9-2.5,1.3-4.2,1.3c-0.3,0-0.6-0.1-0.8-0.3c-0.2-0.2-0.3-0.5-0.3-0.8c0-0.3,0-0.9,0-1.7l0.6-11.4l-0.1-4.8l0.3-13
		c0-1.4,0-2.4-0.1-3.1l-0.2-0.3V30.7z M4.5,61.9l0.1,2.5c1.3,0,2.5-0.6,3.4-1.9s1.4-2.6,1.4-4v-0.1c0-0.3,0-0.6,0-0.9s0-0.8,0-1.5
		s-0.1-1.4-0.2-2c-0.1-0.6-0.2-1.3-0.5-2C8.6,51.2,8.3,50.6,8,50c-0.7-1.2-1.8-1.8-3.1-1.8c-0.2,2.7-0.3,5.1-0.3,7.2s0.1,3.4,0.2,4
		C4.7,59.7,4.5,60.6,4.5,61.9z M4.9,41.2L4.8,45v0.7L5,46.3h0.4c2.4,0,3.6-2.4,3.6-7.2c0-0.7-0.1-1.8-0.2-3.4l-0.1-0.1
		c-0.2-3-1.1-4.5-2.7-4.5c-0.8,0-1.2,2.4-1.2,7.1L4.9,41.2z"/>
	<path class="st1" d="M16.9,65.5l0.1-1.4l-0.2-0.2c0.3-0.7,0.4-1.5,0.4-2.2l-0.3-7.1l0.4-16.3l-0.2-6.5c0-1,0.5-1.5,1.6-1.5
		c0.4,0,0.7,0.1,0.9,0.3c0.1,0,0.6,0.1,1.6,0.2c2.2,0.2,3.4,0.7,3.4,1.3c0,0.3-0.3,0.6-1,1c-2-0.7-3.5-1-4.4-1l-0.3,0.3
		c0,0.5,0.1,1.3,0.1,2.3l-0.2,8.4c0,1,0.3,1.5,0.8,1.5l1.8-0.1c1.4,0,2.1,0.3,2.1,1c0,0.4-0.1,0.7-0.3,1s-0.5,0.4-1,0.4
		s-0.8-0.1-1.1-0.4l-1.8-0.3H19l-0.3,0.3v0.2c0.1,0.9,0.1,2.4,0.1,4.3l-0.1,7.7c0,3.6,0.2,5.6,0.7,6c0.3,0.3,0.9,0.4,1.7,0.4l2-0.1
		c1.1,0,1.6,0.2,1.6,0.7c0,0.7-0.8,1-2.4,1H18C17.3,66.6,17,66.2,16.9,65.5z"/>
	<path class="st1" d="M36.7,57.8l-1.4,0.1c-0.5-0.2-1.1-0.3-1.7-0.3s-1,0-1,0.1c-0.1,0-0.1,0.1-0.1,0.2c0,0.1,0,0.2-0.1,0.2
		l-0.1,1.1c-0.1,0.9-0.2,2-0.5,3.3c-0.5,2.5-1,3.8-1.6,3.8c-0.2,0-0.5-0.1-0.7-0.3c-0.2-0.2-0.4-0.4-0.4-0.6
		c0.5-1.4,0.9-3.4,1.4-6.2s0.8-4.5,0.9-5.1c0.1-0.7,0.4-2,0.7-4.1c0.3-2.1,0.6-3.4,0.7-4.1c0.1-0.7,0.4-2.1,0.9-4.2s0.7-3.6,0.8-4.3
		c0.1-0.7,0.2-1.6,0.3-2.7c0.3-2.8,0.5-4.4,0.7-4.7l0.7,0.1c0.4,0,0.8-0.1,1-0.3c0.2,0,0.4,0.1,0.7,0.2c0.2,0.2,0.3,0.3,0.3,0.6
		c0,1.7,0.2,5.1,0.7,10c0.4,5,0.8,8.2,1,9.6c0.3,1.5,0.6,2.9,0.9,4.3c0.3,1.4,0.5,2.5,0.5,3.2l-0.3,0.7c0,0.8,0.1,2,0.4,3.6
		c0.3,1.6,0.4,2.7,0.4,3.3c0,0.6-0.1,1-0.4,1.2c-0.7,0-1.2-0.1-1.4-0.3c-0.2-0.2-0.3-0.6-0.3-1s0-1-0.1-1.7
		c-0.1-0.7-0.1-1.2-0.2-1.6c-0.1-0.4-0.2-1-0.3-1.9c-0.1-0.9-0.2-1.4-0.3-1.7C38.5,57.9,37.6,57.8,36.7,57.8z M32.9,55.2
		c0,0.4,0.4,0.7,1.3,0.9c1.3,0.4,2.8,0.6,4.4,0.6h0.6c-0.2-0.7-0.3-1.5-0.3-2.4V53c0-2.2-0.3-5.5-0.8-9.8c-0.6-4.3-0.9-7.5-0.9-9.6
		c-1.9,9.3-3.1,15.1-3.5,17.3S32.9,54.5,32.9,55.2z"/>
	<path class="st1" d="M58.4,41.6l0.1,1.1c-0.1,0.9-0.1,2.2-0.1,3.7s-0.1,3-0.1,4.4c0,1.4-0.1,2.9-0.1,4.5s-0.2,3.1-0.4,4.4
		c-0.5,3.1-1.3,5.1-2.4,6.1c-1.2,1.1-2.6,1.2-4.2,0.3c-0.7-0.4-1.3-0.9-1.7-1.5c-0.5-0.6-0.8-2.5-1.1-5.6c-0.3-3.2-0.4-6.5-0.5-10
		c-0.2-10.5-0.3-16.6-0.5-18l0.3-0.8c0.8,0.1,1.2,1.1,1.2,3l0.2,14.4l0.6,11.5c0,4.1,1.4,6.2,4.1,6.2c1.7,0,2.7-3.8,3.2-11.3
		c0-0.5,0.1-3,0.3-7.3c0.1-4.4,0.2-9.6,0.2-15.8l-0.1-1c0-0.4,0.3-0.6,0.8-0.6c0.5,0,0.8,0.1,0.9,0.4c0.1,0.2,0.1,1.3,0.1,3.2
		s-0.1,3.3-0.3,4.2c0,0.1,0.1,0.2,0.1,0.3L58.4,41.6z"/>
	<path class="st1" d="M72.9,31.9L70,31.6l-0.3,0.3l0.1,0.2c-0.1,0.1-0.1,1.2-0.1,3.1c0,1.9,0.3,6.4,0.9,13.5s0.9,12.4,0.9,15.9
		c0,0.3-0.1,0.5-0.3,0.7s-0.4,0.3-0.7,0.3l-0.6-0.4l-0.1-3.9l0.1-1.9c0-0.5-0.1-0.9-0.2-1.3c0-3.1-0.2-7.5-0.6-13.4
		c-0.4-5.9-0.7-10.2-0.7-13c-2.8,0-4.4-0.3-4.5-1c0.2-0.4,0.5-0.6,1-0.6l7.4,0.5l1-0.1c0.7,0,1,0.2,1,0.7c0,0.2-0.1,0.5-0.4,0.6
		C73.5,31.8,73.2,31.9,72.9,31.9z"/>
	<path class="st1" d="M87.5,65.5l-1.8-0.2c-0.3,0-0.6,0.1-1,0.3c-0.4,0.2-0.9,0.3-1.4,0.3c-0.5,0-0.9-0.2-1-0.5l-0.9,0.1
		c-0.8,0-1.3-0.2-1.5-0.6c0-0.2,0.1-0.4,0.3-0.6c0.2-0.1,0.3-0.3,0.4-0.4h1.6l0.2-0.2l0.2-1.1l-0.4-11.8l0.3-12.6
		c0-2.5-0.1-4.5-0.3-6.3c-0.4-0.1-0.9-0.2-1.6-0.2l-1.3,0.1c-0.7,0-1-0.3-1-0.9c0-0.2,0.2-0.3,0.5-0.4c0.3-0.1,0.6-0.2,0.8-0.2
		c5,0,7.5,0.5,7.5,1.6c0,0.1,0,0.2-0.1,0.4l-1.2,0.1c-0.3-0.2-0.8-0.3-1.6-0.3l-0.3,0.2c0.1,0.3,0.2,1.3,0.2,2.9L83.8,48l0.4,11.9
		l-0.1,1.7c0,0.8,0.1,1.3,0.2,1.5l-0.1,0.1c0,0.4,0.4,0.5,1.2,0.5l1.6-0.1c1.1,0,1.6,0.3,1.6,0.8c0,0.3-0.1,0.6-0.3,0.8
		C88.1,65.4,87.8,65.5,87.5,65.5z"/>
	<path class="st1" d="M95.5,56.7l0.3,7.7c0,1.4-0.4,2.2-1.3,2.2l-1.1-0.8c0.3-3.5,0.5-7.1,0.5-11c0-3.9,0.1-8.2,0.4-13.1
		c0.2-4.9,0.4-8.5,0.4-10.9c0-0.3,0.2-0.6,0.5-0.8c0.3-0.2,0.8-0.3,1.5-0.3c0.7,0,1.9,0.1,3.5,0.4c1.6,0.3,2.5,0.7,2.5,1.2
		c0,0.6-0.6,0.9-1.9,0.9c-0.7-0.4-1.4-0.5-2.2-0.5c-0.8,0-1.3,0-1.4,0.1c-0.1,0-0.2,0.1-0.2,0.1s-0.1,0.2-0.1,0.4
		c-0.1,0.2-0.1,0.4-0.2,0.6l-0.5,11.4v1.9c0,0.1,0.3,0.2,0.9,0.2c1.8,0,2.7,0.2,2.7,0.8c0,0.3-0.1,0.5-0.4,0.7
		c-0.3,0.2-0.6,0.3-0.9,0.3L96.4,48c-0.7,0-1,0.9-1,2.6V56.7z M93.7,39.1L93.7,39.1c0,0.1,0,0.1-0.1,0.1s-0.1,0-0.1-0.1
		S93.6,39.1,93.7,39.1L93.7,39.1z"/>
	<path class="st1" d="M118.5,41.6l0.1,1.1c-0.1,0.9-0.1,2.2-0.1,3.7s-0.1,3-0.1,4.4c0,1.4-0.1,2.9-0.1,4.5s-0.2,3.1-0.4,4.4
		c-0.5,3.1-1.3,5.1-2.4,6.1c-1.2,1.1-2.6,1.2-4.2,0.3c-0.7-0.4-1.3-0.9-1.7-1.5c-0.5-0.6-0.8-2.5-1.1-5.6c-0.3-3.2-0.4-6.5-0.5-10
		c-0.2-10.5-0.3-16.6-0.5-18l0.3-0.8c0.8,0.1,1.2,1.1,1.2,3l0.2,14.4l0.6,11.5c0,4.1,1.4,6.2,4.1,6.2c1.7,0,2.7-3.8,3.2-11.3
		c0-0.5,0.1-3,0.3-7.3c0.1-4.4,0.2-9.6,0.2-15.8l-0.1-1c0-0.4,0.3-0.6,0.8-0.6c0.5,0,0.8,0.1,0.9,0.4c0.1,0.2,0.1,1.3,0.1,3.2
		s-0.1,3.3-0.3,4.2c0,0.1,0.1,0.2,0.1,0.3L118.5,41.6z"/>
	<path class="st1" d="M126.9,64.6l5.1,0.2h0.2c0.2,0,0.4,0.1,0.6,0.3c0.2,0.2,0.3,0.4,0.3,0.6c0,0.4-0.3,0.6-0.9,0.7
		c-0.9,0-2.4-0.1-4.5-0.1l0.1,0.1l-2,0.2c-0.5,0-0.8-0.4-0.9-1.2c0.1-0.4,0.1-1,0.1-1.8l0.3-28.9l0.3-3.6c0-0.2,0.1-0.4,0.4-0.4
		l0.9,0.2l-0.1,4.3l0.1,11.8c-0.1,3-0.2,4.5-0.2,4.5l0.1,4.6l-0.2,0.4l0.1-0.1l-0.1,0.4c0,0.3,0.1,0.6,0.2,0.8l-0.2,5.2v0.3
		c0,0.6,0,0.9,0.1,1.1C126.7,64.6,126.8,64.6,126.9,64.6z"/>
	<path class="st1" d="M159.2,63l0.2,2c0,1.1-0.5,1.6-1.4,1.6c-0.6,0-1.1-0.7-1.3-2c-0.1-0.6-0.2-1-0.2-1.1
		c-3.5-11.1-5.7-19.3-6.7-24.4c0-0.2-0.1-0.4-0.1-0.7c0-0.7-0.2-1.2-0.5-1.5l0.1-0.3c-0.2-1.3-0.4-2.3-0.5-2.8
		c-0.1-0.5-0.2-1.1-0.4-1.8c-0.2-1.1-0.6-2.2-1-3.1c-0.1,0.7-0.2,1.3-0.2,1.7c0,0.4,0,0.7,0.1,0.9c-0.2,0.8-0.4,2.1-0.4,3.8V50
		c0,1.7,0.1,4.3,0.4,7.7c0.2,3.4,0.4,6,0.4,7.7l-0.4,0.4h-1.2l-0.2-0.4c0.1-0.3,0.1-1,0.1-2.2l-0.6-18.9v-7.1l0.4-10.2l-0.1-1.1
		c0-0.5,0.1-0.8,0.4-0.9c0.2-0.1,0.5-0.2,0.9-0.2c0.4,0,0.7,0.1,1,0.3c0.3,0.2,0.4,0.6,0.4,1c0,0.5,0.1,1,0.2,1.6s0.4,1.2,0.7,1.9
		c0.3,0.7,0.5,1.3,0.7,1.9c0.2,0.6,0.3,1.5,0.5,2.8c0.1,1.3,0.3,2.4,0.5,3.3c0.2,1,0.5,2.3,1,3.9c0.4,1.6,0.9,3.5,1.5,5.4
		c0.6,2,0.9,3.3,1.1,3.9s0.4,1.4,0.6,2.4c0.6,2,0.9,3.4,0.9,4.3c0.2,0.4,0.4,1.1,0.6,2.1c0.1,1.1,0.4,1.8,0.9,2.2
		c0.2-0.5,0.3-1.4,0.3-2.6l0.2-18.9l-0.2-8.4l0.2-2.1c0-0.4-0.1-0.6-0.2-0.7l0.2-0.5c0-2.2-0.1-3.7-0.2-4.4c0.1-0.5,0.6-0.7,1.3-0.7
		c0.6,0,0.9,0.6,0.9,1.8c-0.2,0.5-0.3,1.1-0.3,1.8l0.1,1.8c0,0.8-0.1,1.3-0.2,1.6l-0.2,17.1c0,0.3,0,0.8,0.1,1.5l-0.1,0.2v6.8l0.1,2
		c0,2.2-0.2,3.6-0.5,4.4V63z"/>
	<path class="st1" d="M174.4,65.5l-1.8-0.2c-0.3,0-0.6,0.1-1,0.3c-0.4,0.2-0.9,0.3-1.4,0.3c-0.5,0-0.9-0.2-1-0.5l-0.9,0.1
		c-0.8,0-1.3-0.2-1.5-0.6c0-0.2,0.1-0.4,0.3-0.6c0.2-0.1,0.3-0.3,0.4-0.4h1.6l0.2-0.2l0.2-1.1l-0.4-11.8l0.3-12.6
		c0-2.5-0.1-4.5-0.3-6.3c-0.4-0.1-0.9-0.2-1.6-0.2l-1.3,0.1c-0.7,0-1-0.3-1-0.9c0-0.2,0.2-0.3,0.5-0.4c0.3-0.1,0.6-0.2,0.8-0.2
		c5,0,7.5,0.5,7.5,1.6c0,0.1,0,0.2-0.1,0.4l-1.2,0.1c-0.3-0.2-0.8-0.3-1.6-0.3l-0.3,0.2c0.1,0.3,0.2,1.3,0.2,2.9L170.8,48l0.4,11.9
		l-0.1,1.7c0,0.8,0.1,1.3,0.2,1.5l-0.1,0.1c0,0.4,0.4,0.5,1.2,0.5l1.6-0.1c1.1,0,1.6,0.3,1.6,0.8c0,0.3-0.1,0.6-0.3,0.8
		C175,65.4,174.7,65.5,174.4,65.5z"/>
	<path class="st1" d="M192.6,55.2l0.2,8.3c-1.9,1.9-3.7,2.8-5.5,2.8c-2.4,0-4-0.5-4.7-1.5c-0.8-1-1.3-3.3-1.8-6.9
		c-0.4-3.6-0.6-6.2-0.6-7.7c0-1.5,0.1-3.2,0.3-5c0.2-1.8,0.3-3.6,0.4-5.2s0.3-3.1,0.6-4.2c0.9-3.8,2.9-5.7,6.1-5.7
		c1.1,0,1.7,0.3,1.7,0.8c0,0.2-0.1,0.4-0.4,0.6c-0.2,0.1-0.5,0.2-0.7,0.2l-1-0.1c-1.2,0-2.2,0.8-2.9,2.3c-0.7,1.7-1.2,3.3-1.4,4.8
		c-0.2,1.5-0.3,2.6-0.4,3.5s-0.1,1.9-0.2,3c-0.1,1.7-0.1,3.2-0.1,4.7c0,1.4,0.1,2.6,0.2,3.5c0.3,0.4,0.5,1.2,0.6,2.2
		c0.1,1,0.2,2,0.2,3c0.1,1,0.2,2,0.4,3c0.2,1,0.7,1.8,1.4,2.4s1.7,0.9,3,0.9c2.2,0,3.3-2.9,3.3-8.6v-4c-0.4-0.4-1-0.6-1.9-0.6
		l-1,0.1c-0.9,0-1.3-0.2-1.3-0.6c0-0.6,0.4-0.9,1.3-0.9c3.3,0,5,0.4,5,1.1L192.6,55.2z"/>
	<path class="st1" d="M206,30c0,0,0.1-0.1,0.3-0.2c0.2-0.2,0.4-0.2,0.5-0.2c0.1,0,0.5,0.1,1.1,0.3c0,2.8,0.1,7,0.3,12.7
		c0.2,5.6,0.3,10.1,0.3,13.6s0.1,6.7,0.3,9.8l-0.3,0.6c0-0.4-0.6-0.6-1.7-0.6c-0.2-8-0.3-12.9-0.3-14.5l-0.1-0.2l0.2-0.5
		c0-0.6-0.1-1.2-0.2-2l-0.8-0.2c-0.3,0.1-0.7,0.2-1.1,0.2l-3.5-0.6l-0.6,0.2l-0.2,6.8l0.2,0.2l0.3,9c0,0.9-0.3,1.4-0.9,1.4
		c-0.8,0-1.2-1.1-1.2-3.3l0.1-9.9c0-3.3-0.1-5-0.2-5.3c0.2-0.4,0.3-1.6,0.3-3.6l-0.4-12.7c0-0.2,0.1-0.5,0.3-0.7
		c0.2-0.2,0.4-0.3,0.6-0.3c0.7,0,1.1,1,1.1,3.1l-0.2,13.2c0,0.4,1.4,0.6,4.3,0.6c0.7,0,1.2-0.1,1.5-0.4c0.3-0.3,0.5-1,0.5-2.1
		c0-1.2-0.1-3.4-0.4-6.7c-0.2-3.3-0.4-5.8-0.4-7.5C206,30.1,206,30,206,30z M205.2,46.3l0.1,0.1h-0.1V46.3z"/>
	<path class="st1" d="M223,31.9l-2.9-0.4l-0.3,0.3l0.1,0.2c-0.1,0.1-0.1,1.2-0.1,3.1c0,1.9,0.3,6.4,0.9,13.5s0.9,12.4,0.9,15.9
		c0,0.3-0.1,0.5-0.3,0.7s-0.5,0.3-0.7,0.3l-0.6-0.4l-0.1-3.9l0.1-1.9c0-0.5-0.1-0.9-0.2-1.3c0-3.1-0.2-7.5-0.6-13.4
		c-0.4-5.9-0.7-10.2-0.7-13c-2.8,0-4.4-0.3-4.5-1c0.2-0.4,0.5-0.6,1-0.6l7.4,0.5l1-0.1c0.7,0,1,0.2,1,0.7c0,0.2-0.1,0.5-0.4,0.6
		C223.5,31.8,223.3,31.9,223,31.9z"/>
	<path class="st1" d="M250.9,55.1l-0.1,5.7c0,2.5,0.2,4.4,0.5,5.6c0.1,0.2,0.1,0.4,0.1,0.7s-0.1,0.6-0.3,1c-0.2,0.4-0.5,0.6-0.9,0.6
		c-0.7,0-1.1-1.2-1.1-3.5c0-7.5-0.1-12.1-0.2-13.8c-0.1-1.6-0.2-3-0.4-4c-0.1-1-0.2-1.8-0.2-2.4l0.2-6.7c0-1.3-0.1-2.1-0.2-2.6
		c-0.7,0.6-2.9,8.2-6.5,22.8c0,0.1-0.1,0.4-0.1,0.8c0,0.4-0.1,0.8-0.2,1.1c-0.1,0.3-0.1,0.7-0.3,1.1c-0.2,0.8-0.6,1.2-1.1,1.2
		c-0.6,0-1-0.1-1.3-0.4s-0.4-0.7-0.4-1.3c0-1.5-0.9-6-2.8-13.4c-1.9-7.5-3.1-11.5-3.8-12.1c-0.1,1.9-0.2,4.9-0.5,8.9
		c-0.5,8.3-0.7,13.9-0.7,16.8s0,4.5,0.1,5c-0.2,0.5-0.5,0.7-1.1,0.7c-0.1,0-0.3-0.1-0.6-0.3c-0.2-0.2-0.4-0.4-0.4-0.5
		c0-3.8,0.3-9.5,0.8-17.1c0.6-7.6,0.8-13.3,0.8-17.1l-0.3-1c0-0.5,0.5-0.8,1.5-0.8c0.5,0,0.9,0.3,1.1,0.8c0.1,0.4,0.2,0.9,0.2,1.4
		c0,0.5,0.1,1,0.2,1.6c0.1,0.6,0.6,1.8,1.4,3.7c0.8,1.8,1.3,3.1,1.5,3.7c0.2,0.7,0.4,1.5,0.7,2.4c0.6,2.1,1,3.6,1.2,4.7l0.7,1.4
		c0.1,0.6,0.3,1.5,0.6,2.6c0.6,2.5,0.9,4.4,1,5.8c0.4-0.6,1.6-4.4,3.4-11.2s2.9-10.7,3-11.6s0.3-1.6,0.4-2c0.1-0.5,0.1-0.8,0.2-1.1
		s0.2-0.6,0.3-1c0.3-0.7,0.7-1.1,1.3-1.1c0.2,0,0.5,0.1,0.8,0.3c0.3,0.2,0.5,0.4,0.5,0.7C250.2,46.3,250.5,54.3,250.9,55.1z
		 M248.4,35.5L248.4,35.5l-0.1,0.1l0.1,0.1V35.5z"/>
	<path class="st1" d="M263.9,57.8l-1.4,0.1c-0.5-0.2-1.1-0.3-1.7-0.3s-1,0-1,0.1c-0.1,0-0.1,0.1-0.1,0.2c0,0.1,0,0.2-0.1,0.2
		l-0.1,1.1c-0.1,0.9-0.2,2-0.5,3.3c-0.5,2.5-1,3.8-1.6,3.8c-0.2,0-0.5-0.1-0.7-0.3c-0.2-0.2-0.4-0.4-0.4-0.6
		c0.5-1.4,0.9-3.4,1.4-6.2c0.5-2.8,0.8-4.5,0.9-5.1c0.1-0.7,0.4-2,0.7-4.1c0.3-2.1,0.6-3.4,0.7-4.1c0.1-0.7,0.4-2.1,0.9-4.2
		s0.7-3.6,0.8-4.3c0.1-0.7,0.2-1.6,0.3-2.7c0.3-2.8,0.5-4.4,0.7-4.7l0.7,0.1c0.4,0,0.8-0.1,1-0.3c0.2,0,0.4,0.1,0.7,0.2
		c0.2,0.2,0.3,0.3,0.3,0.6c0,1.7,0.2,5.1,0.7,10c0.4,5,0.8,8.2,1,9.6c0.3,1.5,0.6,2.9,0.9,4.3c0.3,1.4,0.5,2.5,0.5,3.2l-0.3,0.7
		c0,0.8,0.2,2,0.5,3.6c0.3,1.6,0.5,2.7,0.5,3.3c0,0.6-0.1,1-0.4,1.2c-0.7,0-1.2-0.1-1.4-0.3c-0.2-0.2-0.3-0.6-0.3-1s0-1-0.1-1.7
		c-0.1-0.7-0.1-1.2-0.2-1.6c-0.1-0.4-0.2-1-0.3-1.9c-0.1-0.9-0.2-1.4-0.3-1.7C265.7,57.9,264.9,57.8,263.9,57.8z M260.1,55.2
		c0,0.4,0.4,0.7,1.3,0.9c1.3,0.4,2.8,0.6,4.4,0.6h0.6c-0.2-0.7-0.3-1.5-0.3-2.4V53c0-2.2-0.3-5.5-0.8-9.8c-0.6-4.3-0.8-7.5-0.9-9.6
		c-1.9,9.3-3.1,15.1-3.5,17.3C260.3,53.1,260.1,54.5,260.1,55.2z"/>
	<path class="st1" d="M274.6,31.8c0-1.4,0.4-2.1,1.2-2.1c1.8,0,3.2,0.4,4.4,1.3s1.7,2.2,1.7,3.9V39c0,1.4-0.7,3.4-2.1,6
		c-0.5,0.9-0.7,1.3-0.7,1.4c0,0.1,0.7,2.9,2.1,8.6c1.4,5.6,2.1,8.5,2.2,8.7c0.1,0.2,0.2,0.5,0.5,1.1c0.3,0.6,0.4,1,0.4,1.5
		s-0.2,0.6-0.6,0.6l-0.8-0.3c-0.8-1-1.8-4.5-2.8-10.6c-1-5.9-1.8-8.8-2.5-8.8h-0.2c-0.8,0-1.2,0.3-1.2,0.8c0,2,0.1,5.3,0.3,9.9
		c0.2,4.6,0.4,7.2,0.6,7.7l-0.4,0.9h-0.8l-0.4-0.4C274.8,50.3,274.6,38.9,274.6,31.8z M276.1,32.6l0.2,13.1l0.1,0.1
		c0.7,0,1.3-0.4,1.9-1.1c0.5-0.7,1-1.6,1.2-2.6c0.6-2.1,0.9-3.7,0.9-4.8c0-1.1,0-1.9-0.1-2.5c-0.1-0.6-0.2-1.1-0.4-1.8
		c-0.5-1.3-1.5-1.9-3.1-1.9c-0.2,0-0.4,0.2-0.5,0.5S276.1,32.3,276.1,32.6z"/>
	<path class="st1" d="M289.3,65.5l0.1-1.4l-0.2-0.2c0.3-0.7,0.4-1.5,0.4-2.2l-0.3-7.1l0.4-16.3l-0.2-6.5c0-1,0.5-1.5,1.6-1.5
		c0.4,0,0.7,0.1,0.9,0.3c0.1,0,0.6,0.1,1.6,0.2c2.2,0.2,3.4,0.7,3.4,1.3c0,0.3-0.3,0.6-1,1c-2-0.7-3.5-1-4.4-1l-0.3,0.3
		c0,0.5,0.1,1.3,0.1,2.3l-0.2,8.4c0,1,0.3,1.5,0.8,1.5l1.8-0.1c1.4,0,2.1,0.3,2.1,1c0,0.4-0.1,0.7-0.3,1c-0.2,0.3-0.5,0.4-1,0.4
		s-0.8-0.1-1.1-0.4l-1.8-0.3h-0.2l-0.3,0.3v0.2c0.1,0.9,0.1,2.4,0.1,4.3l-0.1,7.7c0,3.6,0.2,5.6,0.7,6c0.3,0.3,0.9,0.4,1.7,0.4
		l2-0.1c1.1,0,1.6,0.2,1.6,0.7c0,0.7-0.8,1-2.4,1h-4.5C289.7,66.6,289.3,66.2,289.3,65.5z"/>
</g>
</svg>
