<?xml version="1.0" encoding="utf-8"?>
<!-- Generator: Adobe Illustrator 21.0.0, SVG Export Plug-In . SVG Version: 6.00 Build 0)  -->
<svg version="1.1" id="Layer_1" xmlns="http://www.w3.org/2000/svg" xmlns:xlink="http://www.w3.org/1999/xlink" x="0px" y="0px"
	 viewBox="0 0 553.8 220.7" style="enable-background:new 0 0 553.8 220.7;" xml:space="preserve">
<style type="text/css">
	.st0{enable-background:new    ;}
	.st1{fill:#ED1A6F;}
	.st2{fill:#FFFFFF;}
</style>
<title>roadEnds</title>
<g class="st0">
	<path class="st1" d="M9.9,85.2c-0.4-1.3-0.6-2.1-0.6-4c0-4,2.8-9.1,6.6-10.6c3.4-3.1,6.3-3.2,10.2-3.2h5.4c2.5,0,6.5,1.9,7.4,1.9
		c6,0,8.4,2.9,10,2.9c2.4,1.8,4.6,1.5,6.6,3.2c3.5,0.9,4.1,3.1,8.4,4.9c1.9,3.1,7.7,5.1,7.7,15.4c0,6.8-2.5,8.5-4.3,9.9
		c-0.7,3.1-12.7,10-16.3,11.3c-5.9,4.7-9.6,5-15.3,8.2c-2.6,1.5-9.9,3.5-9.9,6.2c0,5.3,11.5,10.9,16.5,17.2c4.1,1.6,6.6,4.3,9.9,7.2
		c3.2,3.1,6.5,3.7,9.6,7.5c3.7,0,3.7,3.7,7.5,4.4c2.9,3.1,5.6,2.8,5.6,8.4c0,5-0.1,5.7-1.8,5.7c-4,0-4-2.9-7.9-4
		c-10.4-5.4-16-6.8-23.4-13.5c-2.8-1.3-3.7-2.8-7.5-4.4c-1.6-0.7-2.9-3.5-7.8-5.7c-1.9-2.2-7.4-5.3-7.9-5.3s-0.9,0.9-0.9,2.2
		c0,1.9-2.8,11.5-2.8,15.9c-1.5,3.5-1,8.7-3.1,8.7c-3.5,0-4.9-3.4-5.9-4.4c0-15.4,2.1-15.7,2.1-27.8c0-4.1-5-2.6-5-8.4
		c0-2.2,0.1-2.9,0.6-3.5c3.7-2.1,5.6-3.4,6.2-4.4c0.4-0.7,1-16.9,1-18.8c0-3.4-0.7-4.6-0.7-8.5V85.2z M25.7,104.9
		c-0.6,1.2-0.9,2.8-0.9,4.3c-0.7,1.8-2.8,11.3-2.8,12.4c0,0.7,0.4,1.2,1.2,1.2c1.6,0,15.4-8.7,17.9-8.7c2.4-2.9,16.2-9.9,16.2-16
		c0-3.8-7.9-9.9-10.3-10.2c-1.8-0.7-5.4-2.8-7.9-2.8c-3.4-1.6-9.7-1.8-14.7-2.6C19,83.2,16,83,16,88.8c0,1.5-0.1,5.4,2.1,5.4
		c0.9-1.6,4.1-3.1,5.4-3.1c1.9,0,3.7,3.2,3.7,4.9C27.2,99.1,25.7,100.5,25.7,104.9z"/>
	<path class="st1" d="M75.6,148.3c1.5-1.2,1.5-2.6,15.7-14.9c0.9-0.4,2.1-3.7,4.1-4.1c4-3.4,9.7-9.9,11-9.9c4.6,0,5.9,0.9,5.9,1.8
		c0,0.6-1.8,1.9-1.8,4c2.2-0.1,4.4-2.2,7.2-2.2c8.2,0,8.1,3.2,10.2,4.6c0.6,2.2,1.8,3.4,1.8,4.7c0,15.3-5.6,16.8-7.2,21.8
		c-7.2,6.3-2.4,4.3-7.8,7.8c-2.2,4.3-8.4,6.5-9.4,7.4c-1.8,1.5-6.9,1.5-8.2,2.1c-6.5-0.7-7.1-1.2-7.9-2.6c-3.5-1.2-5.1-5-5.1-7.8
		c0-1.8,0.3-2.2,0.3-4c0-4.1,1-4.3,1-6.6c-3.7,0.4-7.4,6.6-9.7,7.1v-2.6c0.3-0.7,0.4-1.8,0.4-2.4c0-0.6-0.1-1-0.4-1.3V148.3z
		 M101.2,161.6c2.5,0,11-5.7,12.5-8.5c1.5-0.7,3.1-2.6,3.1-4.1c0-2.1,2.1-2.8,2.1-6.8c0-3.2-1-5.9-4.7-5.9c-7.7,0-7.1,8.1-12.1,8.1
		c-0.7,0-4.9,6.8-4.9,12.9C97.2,160,98.6,161.6,101.2,161.6z M125.1,159.4c3.2-4.3,5.1-4.1,6.9-7.9c4-2.6,4.3-4.9,5.1-4.9
		c1.5,0,1.5,5.6,2.2,5.6c0,5.3-3.7,4.7-10,10.2c-3.2,1.5-5.1,4-6.6,4c-1.2,0-1.6-0.3-1.6-1.3C121.1,163.6,123.6,160.6,125.1,159.4z"
		/>
	<path class="st1" d="M197.1,147.5c0,1.9,0.3,3.7,0.3,4.3c0,0.4-0.4,1.2-0.4,2.1c0,0.6,0.3,1.2,0.3,2.1c0,1.5-2.2,2.1-3.8,4
		c-4.3,2.9-6.5,4.1-8.4,4.1c-0.6,0-1.5-0.4-1.9-0.4s-1.5,0.4-2.2,0.4c-2.1,0-5.7-2.2-6.6-4.9c-2.5-1.9-1-9.6-3.1-9.6
		c-1,0-4.9,3.5-5.9,5.3c-2.5,0.1-4.1,5.1-8.7,7.4c-2.9,4-7.1,4.9-9.4,7.1c-2.1,0.1-3.1,1.2-4.4,1.2s-4.4-1.8-5.3-2.5
		c-1-2.8-1-3.8-1-4.7c0-2.9,1.5-5,1.5-5.7c0-0.6-1.3-0.9-1.8-0.9c0-7.8,0-9.7,2.9-11.5c2.8-1.8,5.4-5.9,7.1-6.3
		c2.4-3.5,3.2-4.6,6.2-6.3c1.6-3.2,7.4-5.4,10.9-9.7c1.8-0.4,3.4-2.1,4.9-3.8c5-3.1,8.8-7.4,13.8-7.4c2.9,0,3.2,1.9,4.7,3.2
		c-0.4,3.4-2.9,6.3-6.2,7.4c-1.9,4-5,4.9-7.9,8.1c-0.9,1.8-2.6,3.2-5,4.9c-1.3,2.2-3.5,4.6-5.3,5.3c-1.5,3.1-6.2,6.2-8.5,9.9
		c-0.3,1.5-1.6,1.9-1.6,3.7c2.9,0,4.6-3.1,8.1-4.7c0.6-1.3,4.3-5.4,8.4-7.4c2.2-3.7,6.3-5.6,8.4-7.7c1.9-0.4,3.8-0.6,4.9-0.6
		c2.6,0,1.3,4.7,2.8,6.3c0,1.8-0.6,2.5-0.6,5.3c0,3.1,1.9,6.5,5.3,6.5c2.8,0,3.2-1.8,4.3-1.8c2.2-1.2,2.4-2.9,3.1-2.9L197.1,147.5z"
		/>
	<path class="st1" d="M265.8,146.4c0.7,0,1,0.3,1,0.6c0,0.9-0.1,1.6-0.4,2.4c0,3.5,0.4,4.4,0.4,5.3c-1.8,3.7-9.7,7.2-16.8,7.2
		c-3.7-1.2-7.4-1-9.9-5.7c-1.5-1.3-2.8-3.7-2.9-6.2c-2.1-1.9-0.9-6.6-2.8-6.6c-1.5,0-5.4,5.3-5.9,6.8c-1.6,4.9-4.3,4.3-7.2,9.4
		c-2.5,1.8-10.2,12.7-16.8,12.7c-1.8,0-3.1-0.7-4.9-1c-1.6-0.3-2.2-3.1-2.2-4.9c0-5.7,2.9-10.4,2.9-11.2c0-0.3-0.3-0.4-0.9-0.4
		c-2.1,0-2.5,2.6-3.5,2.6c-0.4,0-0.7-0.4-0.7-1.5c0-1.2,0.9-2.4,0.9-3.1c0-0.7-0.6-1.5-0.6-2.8c0-1.2,0.3-2.4,1.5-3.1
		c3.4-2.1,4-3.7,6-4.4c1.6-2.6,5-4.1,5.1-5.9c2.5-2.9,6-6.3,9.9-9.1c0.3-0.9,1-1.5,1.9-2.1c1.8-2.5,4.9-5.4,11.2-10
		c2.4-2.4,3.4-3.2,5.6-3.2c2.1,0,2.4-6.6,4-8.7c1-4.4,3.2-8.5,3.2-10.6c2.8-4.1,3.5-9.1,8.4-16.2c0-2.4,6-10.2,9.1-10.2
		c1.8,0,3.2,0.6,3.2,7.8c-1,0.6-1,8.1-2.4,8.4c-0.9,7.9-2.9,8.4-4.1,12.9c0,1.8,0,3.1-3.1,9.1c-1.9,2.2-0.1,3.2-3.7,7.4
		c0,4.9-2.2,5-4.1,10.6c-0.3,2.5-1,4.1-1,9.1c0.7,1.8,0,7.1,1.9,11.5c1.6,1.6,1.6,6.8,8.1,6.8C262.2,150.1,264.2,146.4,265.8,146.4z
		 M235.1,123.9c-1.3,0-7.4,6.6-7.4,7.9c-1.6,0.4-2.8,3.8-6,6.6c-2.5,5-9.1,12.1-9.1,17.8c2.6,0,7.2-6.5,10.6-9.9
		c1.5-1.5,2.5-3.8,4.9-6c2.1-3.8,3.8-5.3,7.1-11.5V123.9z"/>
</g>
<g class="st0">
	<path class="st1" d="M351.2,163.3c-1.8,2.4-7.1,4.9-8.7,4.9c-1.5,1-3.8,2.2-5.3,2.2c-5,2.5-9.9,4-11,4c-4.9,0.1-8.7,1-9.6,1
		c-1.3,0-2.5,0-3.4-0.1c-1.5,0.4-2.8,0.4-3.7,0.4c-1.2,0-4.7-0.6-4.7-2.2c0-1,0-2.1,0.3-2.9c-4,0-4.6-1.2-4.6-4.3
		c0-1.8,0.9-5.4,0.9-16.3c0-3.8,1.2-6.6,1.2-11.6c1-4.1,1-10,2.4-13.8c0-2.2,0-8.4,2.5-15.9c0-5.4,1.5-8.7,4-19
		c1-4.6,4.4-4.6,6.5-9.7c6.5-4.1,8.5-6.8,10.7-7.7c1-1.6,1.9-2.2,2.6-2.5c2.4-0.7,4.9-3.2,13.2-3.2c1.5-0.4,3.7-0.9,6.2-0.9
		c1.2,0,1.9,0.6,2.5,0.6c1,0,2.1-0.3,2.5-0.3c5.4,0.4,7.7,1.6,7.7,5.9c0,5-1,5.3-1,7.7c0,3.4-0.9,3.7-3.7,3.7
		c-1.6,0-2.9-0.4-3.4-1.2c-4.1-1.5-5.4-1.5-10.9-1.5c-0.9,0-1.6,0.6-6.6,0.6c-1.2,0-1.2,1.2-5.4,1.2c-5,0-5.1,7.2-7.5,9.3
		c0.1,0.6,0.4,1.8,0.4,2.5c-3.1,7.7-3.5,14.1-5,16.8c-0.3,4.1-1.8,4.4-1.8,10.3c4.3,0,4.3-3.1,8.8-5.3c4.6-0.6,6.5-2.9,10.7-2.9
		c1.2,0,2.4,0.3,3.5,0.3c0.7,0,5.3-0.7,7.4-0.7c2.2,0,2.6,0.9,5.3,0.9c1.2,0.7,1.3,2.5,2.4,3.5c0,6.2-1.2,8.5-2.6,9.6
		c-2.2-0.4-4.9-0.4-8.1-1.2c-3.1,0.6-4.3,0.6-9.1,0.6c-0.7,0-1.6,0.4-2.1,0.4c-0.9,0-1.9-0.1-2.9-0.1c-7.1,2.9-16.2,1.6-16.6,9.7
		c-1.5,4.4-1.5,9.9-2.5,11.5c0,1,0.3,2.1,0.3,2.8c-1.6,4-1.6,8.1-1.6,11.8c1.5,0,2.8,0.1,4.3,0.4c0.4-0.1,2.8-0.6,4.7-0.6
		c1.3,0,2.8,0.1,4.4,0.3c1.5-0.3,4.6-0.9,6-0.9c1.6-0.9,7.7-1.9,10.3-2.4c2.8-0.9,5-2.4,8.8-3.1c1.9-2.2,3.4-1.8,5-2.6
		c1.8,0.3,2.1,1.5,2.1,2.8C356.9,158.8,354.6,161.4,351.2,163.3z"/>
</g>
<g class="st0">
	<path class="st1" d="M396,139.8c0,2.9-4.3,11.2-4.3,14c0,0.3,0,0.6,0.3,0.6c0.3,0,1.2-0.3,1.8-1.6c5.9-7.8,8.4-8.4,13.4-14.3
		c1.9-1,4.6-4.9,9.1-4.9c1.9,0,3.7,0.3,5.4,1c1.2,2.8,3.2,4,3.5,6.2c2.2,2.8,2.4,10.7,6.9,10.7c3.4,0,3.7-3.5,6.6-5
		c0,3.7,0.1,6.2,0.6,8.7c-4.9,6.3-9.3,9.6-13.2,9.6c-6.9,0-7.9-10.3-12.5-12.8c-0.4-1.9-2.1-3.4-2.9-3.4c-2.6,0-7.9,6.8-12.5,9.7
		c-3.7,7.1-12.2,13.1-12.9,15c-1,2.4-4.9,2.4-6,2.4c-2.9,0-3.7-0.4-3.7-2.8c0-0.6,0.1-0.9,0.1-1.6c0-0.6-0.1-1.2-0.1-1.9
		c0-1.5,1.3-4.9,1.3-5.4c0.1-0.6,0.9-1.8,0.9-3.7c0-2.5,2.9-6,2.9-10.9c0-0.9,1.2-3.7,1.2-4.7c0-0.4-0.4-0.7-0.9-0.7
		c-2.5,0-3.8,1.6-4.4,2.6c-1.9,2.8-7.7,8.5-8.1,8.8c-0.6,0.7-1.5,2.1-2.1,2.1c-0.3,0-0.4-0.3-0.6-0.6c0.3-0.4,0.1-1.9,0.7-2.8
		c0-3.2,0-4.3-0.6-5.7c0.9-2.9,8.2-10.6,8.8-12.2c8.4-7.7,10-12.2,11.9-12.7c2.9-0.6,4.6-2.2,6.5-2.2c3.5,0,5.6,3.8,5.6,7.1
		C398.8,130.8,397.4,138,396,139.8z"/>
	<path class="st1" d="M507.1,146.4c0.7,0,1,0.3,1,0.6c0,0.9-0.1,1.6-0.4,2.4c0,3.5,0.4,4.4,0.4,5.3c-1.8,3.7-9.7,7.2-16.8,7.2
		c-3.7-1.2-7.4-1-9.9-5.7c-1.5-1.3-2.8-3.7-2.9-6.2c-2.1-1.9-0.9-6.6-2.8-6.6c-1.5,0-5.4,5.3-5.9,6.8c-1.6,4.9-4.3,4.3-7.2,9.4
		c-2.5,1.8-10.2,12.7-16.8,12.7c-1.8,0-3.1-0.7-4.9-1c-1.6-0.3-2.2-3.1-2.2-4.9c0-5.7,2.9-10.4,2.9-11.2c0-0.3-0.3-0.4-0.9-0.4
		c-2.1,0-2.5,2.6-3.5,2.6c-0.4,0-0.7-0.4-0.7-1.5c0-1.2,0.9-2.4,0.9-3.1c0-0.7-0.6-1.5-0.6-2.8c0-1.2,0.3-2.4,1.5-3.1
		c3.4-2.1,4-3.7,6-4.4c1.6-2.6,5-4.1,5.1-5.9c2.5-2.9,6-6.3,9.9-9.1c0.3-0.9,1-1.5,1.9-2.1c1.8-2.5,4.9-5.4,11.2-10
		c2.4-2.4,3.4-3.2,5.6-3.2c2.1,0,2.4-6.6,4-8.7c1-4.4,3.2-8.5,3.2-10.6c2.8-4.1,3.5-9.1,8.4-16.2c0-2.4,6-10.2,9.1-10.2
		c1.8,0,3.2,0.6,3.2,7.8c-1,0.6-1,8.1-2.4,8.4c-0.9,7.9-2.9,8.4-4.1,12.9c0,1.8,0,3.1-3.1,9.1c-1.9,2.2-0.1,3.2-3.7,7.4
		c0,4.9-2.2,5-4.1,10.6c-0.3,2.5-1,4.1-1,9.1c0.7,1.8,0,7.1,1.9,11.5c1.6,1.6,1.6,6.8,8.1,6.8C503.4,150.1,505.5,146.4,507.1,146.4z
		 M476.4,123.9c-1.3,0-7.4,6.6-7.4,7.9c-1.6,0.4-2.8,3.8-6,6.6c-2.5,5-9.1,12.1-9.1,17.8c2.6,0,7.2-6.5,10.6-9.9
		c1.5-1.5,2.5-3.8,4.9-6c2.1-3.8,3.8-5.3,7.1-11.5V123.9z"/>
	<path class="st1" d="M544.3,121.6c0.3,1.8,0.3,3.1,0.3,4.4c0,1.6,0,3.5-0.6,4.6c0,9.3-2.9,15.7-2.9,16.9c0,2.5-3.5,7.8-3.5,11.6
		c0,0.6,0.1,0.9,0.4,0.9c2.4,0,8.2-6.9,9.1-7.2c4.9-5.9,5.3-6.2,5.9-6.2c0.3,0,0.4,0.3,0.4,0.6c0,0.4-0.4,1.5-0.4,2.4
		c0,0.7,0.7,3.4,0.7,5.1c0,1.5-3.1,4.9-3.7,5c-2.6,4-6.6,6-10.9,8.5c-4.1,5.9-7.4,4.9-8.8,8.4c-4.1,1.5-5,2.6-5.7,2.6
		c-2.2,0-2.5-1-2.5-3.1c-1.3-1.5-2.5-7.2-2.5-12.1c0-1.8-0.6-2.2-0.6-3.7c0-2.6,3.7-5.3,5.7-5.3c1.9,0,1.6,2.6,2.5,2.6
		c1.6,0,2.5-14.1,2.5-18.5c0-1.5-0.9-1.2-1.3-1.9c-2.5,0-3.2,3.1-7.7,5.3c-13.4,11.3-13.8,14.6-15.6,14.6c0-0.6,0.4-1.2,0.4-1.8
		c0-1-0.9-4.4-0.9-5.6c0-0.6,0.1-1.2,0.4-1.9c1.5-1.5,6.8-5.3,8.5-8.1c3.2-2.8,5-5.1,6.3-6.9c2.5-0.3,12.1-14.9,16.6-14.9
		C538.6,118,542.6,118.5,544.3,121.6z"/>
</g>
<g class="st0">
	<path class="st2" d="M159.6,6.6c-0.3,0.3-0.9,0.7-3.3,7l-1.8,4.7c-1,2.7-2.1,5.5-2.9,7.9c-0.1,0.2-1,0.2-1.1,0
		c-1.1-2.8-1.9-5-3.2-7.9l-0.9-2.1l-0.9,2.1c-1.2,2.7-2.4,5.5-3.3,7.9c-0.1,0.2-1.1,0.2-1.1,0c-0.9-2.8-1.7-5-2.7-7.9l-1.7-4.7
		c-2.1-5.6-2.6-6.7-3.2-7c-0.5-0.3-1.1-0.5-2.1-0.6c-0.1,0-0.1-0.4,0-0.4c2.5,0,4.4,0,7.5,0c0.1,0,0.2,0.4,0,0.4
		c-1.2,0.1-1.8,0.4-1.8,0.9c0,0.6,0.3,1.9,2.1,6.7l3.1,9.1l3.5-8.2l-0.4-1c-2.4-5.6-3-6.7-3.6-7c-0.5-0.3-1.1-0.5-2.1-0.6
		c-0.1,0-0.1-0.4,0-0.4c2.6,0,4.2,0,7.2,0c2.1,0,4.2,0,6.4,0c0.1,0,0.1,0.4,0,0.4c-1,0.1-1.4,0.3-1.9,0.6c-0.4,0.3-0.9,0.8-3.7,7
		c0,0,3.7,9.1,3.7,9.1l3.4-9.1c1.7-4.4,1.9-5.9,1.9-6.6c0-0.6-0.6-0.9-1.9-1c-0.2,0-0.1-0.4,0-0.4c2,0,4.2,0,6.5,0
		c0.1,0,0.1,0.4,0,0.4C160.5,6.1,160,6.3,159.6,6.6z M146.9,6c-1.1,0.1-1.6,0.4-1.6,0.9c0,0.6,0.2,1.5,1.5,4.6l0.3,0.7
		c1.3-3.3,1.6-4.6,1.6-5.2C148.6,6.5,148.2,6.2,146.9,6z"/>
	<path class="st2" d="M190.4,26.3c-0.1,0-0.1-0.4,0-0.4c1.2-0.1,1.8-0.3,2.2-0.5c0.4-0.2,0.7-0.8,0.7-7v-2h-12v2
		c0,6.3,0.3,6.8,0.7,7c0.4,0.2,0.9,0.4,2.2,0.5c0.2,0,0.2,0.4,0.1,0.4c-3.1,0-5.1,0-8.1,0c-0.1,0-0.1-0.4,0-0.4
		c1.2-0.1,1.8-0.3,2.2-0.5c0.4-0.2,0.7-0.8,0.7-7v-4.7c0-6.3-0.3-6.9-0.7-7c-0.4-0.2-0.9-0.4-2.2-0.5c-0.2,0-0.1-0.4,0-0.4
		c2.9,0,5,0,8.1,0c0.1,0,0.1,0.4-0.1,0.4c-1.2,0.1-1.8,0.3-2.2,0.5c-0.4,0.2-0.7,0.8-0.7,7v1.5h12v-1.5c0-6.3-0.3-6.9-0.7-7
		c-0.4-0.2-0.9-0.4-2.2-0.5c-0.2,0-0.2-0.4,0-0.4c2.9,0,5,0,8.1,0c0.1,0,0.1,0.4,0,0.4c-1.2,0.1-1.8,0.3-2.2,0.5
		c-0.4,0.2-0.7,0.8-0.7,7v4.7c0,6.3,0.3,6.8,0.7,7c0.4,0.2,0.9,0.4,2.2,0.5c0.2,0,0.2,0.4,0,0.4C195.5,26.3,193.4,26.3,190.4,26.3z"
		/>
	<path class="st2" d="M228.9,25.7c-0.2,0.4-0.6,0.6-1.4,0.6c-1.9,0-3.9-0.1-6.6-0.1c-2,0-3.1,0-5.3,0.1c-0.1,0-0.1-0.4,0-0.4
		c1.3-0.1,1.8-0.3,2.2-0.5c0.4-0.2,0.7-0.8,0.7-7v-4.7c0-6.3-0.3-6.9-0.7-7c-0.4-0.2-0.9-0.4-2.2-0.5c-0.1,0-0.1-0.4,0-0.4
		c2.5,0,6.2,0.1,8.2,0.1c2.7,0,3.8,0,4.8-0.2c0.1,0,0.2,0.1,0.2,0.1c-0.1,1.1-0.2,2.4-0.4,4.1c0,0.1-0.4,0.1-0.4-0.1
		c0-0.8-0.1-1.5-0.5-2c-0.5-0.6-1.5-0.9-3.8-0.9c-1.2,0-2.4,0-2.7,0.1c-0.1,0.3-0.1,1.6-0.1,3.6V15h2.6c3,0,3.4-0.4,3.6-1.5
		c0-0.1,0.4-0.1,0.4,0c-0.1,1.8-0.2,2.8-0.2,4.6c0,0.1-0.4,0.1-0.4,0c0-0.6-0.2-1.2-0.5-1.5c-0.3-0.3-0.8-0.5-3-0.5h-2.6v2.2
		c0,4.1,0.3,5.8,0.7,6.2c0.4,0.4,1.1,0.6,2.9,0.6c2,0,3.1-0.4,3.7-1c0.4-0.5,0.8-1.2,1-2.2c0-0.2,0.4-0.1,0.4,0.1
		C229.4,23.7,229.2,25.3,228.9,25.7z"/>
	<path class="st2" d="M265.7,26.2c-1.9,0-3-0.3-4.3-1.1c-1.6-1.1-3.3-3.3-5.9-7.7c-1.6,0.1-2.6,0-3.8,0v0.9c0,6.3,0.3,6.8,0.7,7
		c0.4,0.3,1.4,0.4,2.8,0.5c0.1,0,0.1,0.4,0,0.4c-3,0-5.7,0-8.7,0c-0.1,0-0.1-0.4,0-0.4c1.2-0.1,1.8-0.3,2.2-0.5
		c0.4-0.2,0.7-0.8,0.7-7v-4.7c0-6.3-0.3-6.9-0.7-7c-0.4-0.2-0.9-0.4-2.2-0.5c-0.2,0-0.1-0.4,0-0.4c1.4,0,2.9,0.1,4,0.1
		c1.2,0,2.5-0.1,3.9-0.1c4.8,0,7,2.6,7,5.1c0,2.5-1.6,4.6-3.8,6c4.2,6.4,6.9,9,9.1,9c0.3,0,0.7,0,0.9,0c0.1,0,0.1,0.4,0.1,0.5
		C267.1,26.2,266.5,26.2,265.7,26.2z M254.4,6.6c-1.1,0-2,0.2-2.2,0.4c-0.2,0.3-0.5,2-0.5,6.6c0,1.9,0.1,2.1,0.3,2.3
		c0.4,0.3,1.2,0.5,2.7,0.5c2.6,0,4-2.1,4-4.6C258.7,8.8,257.4,6.6,254.4,6.6z"/>
	<path class="st2" d="M293.8,25.7c-0.2,0.4-0.6,0.6-1.4,0.6c-1.9,0-3.9-0.1-6.6-0.1c-2,0-3.1,0-5.3,0.1c-0.1,0-0.1-0.4,0-0.4
		c1.3-0.1,1.8-0.3,2.2-0.5c0.4-0.2,0.7-0.8,0.7-7v-4.7c0-6.3-0.3-6.9-0.7-7c-0.4-0.2-0.9-0.4-2.2-0.5c-0.1,0-0.1-0.4,0-0.4
		c2.5,0,6.2,0.1,8.2,0.1c2.7,0,3.8,0,4.8-0.2c0.1,0,0.2,0.1,0.2,0.1c-0.1,1.1-0.2,2.4-0.4,4.1c0,0.1-0.4,0.1-0.4-0.1
		c0-0.8-0.1-1.5-0.5-2c-0.5-0.6-1.5-0.9-3.8-0.9c-1.2,0-2.4,0-2.7,0.1c-0.1,0.3-0.1,1.6-0.1,3.6V15h2.6c3,0,3.4-0.4,3.6-1.5
		c0-0.1,0.4-0.1,0.4,0c-0.1,1.8-0.2,2.8-0.2,4.6c0,0.1-0.4,0.1-0.4,0c0-0.6-0.2-1.2-0.5-1.5c-0.3-0.3-0.8-0.5-3-0.5h-2.6v2.2
		c0,4.1,0.3,5.8,0.7,6.2c0.4,0.4,1.1,0.6,2.9,0.6c2,0,3.1-0.4,3.7-1c0.4-0.5,0.8-1.2,1-2.2c0-0.2,0.4-0.1,0.4,0.1
		C294.4,23.7,294.1,25.3,293.8,25.7z"/>
	<path class="st2" d="M351.2,10c0,0.1-0.4,0.1-0.4-0.1c0-0.8-0.2-1.7-0.6-2.1c-0.6-0.6-2.1-1.1-5.5-1.1c-0.7,0-1.1,0-1.4,0.1
		c-0.1,0.3-0.1,1.6-0.1,3.6v7.8c0,6.3,0.3,6.8,0.7,7c0.4,0.2,1.2,0.4,2.5,0.5c0.1,0,0.1,0.4,0,0.4c-3,0-5.6,0-8.6,0
		c-0.1,0-0.1-0.4,0-0.4c1.2-0.1,2-0.3,2.5-0.5c0.4-0.2,0.7-0.8,0.7-7v-7.8c0-2,0-3.3-0.1-3.6c-0.3,0-0.9-0.1-1.6-0.1
		c-3.3,0-4.8,0.4-5.5,1.1c-0.5,0.4-0.8,1.4-1,2.2c0,0.2-0.4,0.1-0.4-0.1c0.2-1.6,0.4-3.4,0.4-4.5c0-0.1,0.1-0.1,0.2-0.1
		c1.1,0.2,3.6,0.4,9.1,0.4c7.6,0,8.8-0.2,9.3-0.4c0.2,0,0.2,0.1,0.2,0.1C351.5,6.7,351.4,8.4,351.2,10z"/>
	<path class="st2" d="M381.8,26.3c-0.1,0-0.1-0.4,0-0.4c1.2-0.1,1.8-0.3,2.2-0.5c0.4-0.2,0.7-0.8,0.7-7v-2h-12v2
		c0,6.3,0.3,6.8,0.7,7c0.4,0.2,0.9,0.4,2.2,0.5c0.2,0,0.2,0.4,0.1,0.4c-3.1,0-5.1,0-8.1,0c-0.1,0-0.1-0.4,0-0.4
		c1.2-0.1,1.8-0.3,2.2-0.5c0.4-0.2,0.7-0.8,0.7-7v-4.7c0-6.3-0.3-6.9-0.7-7c-0.4-0.2-0.9-0.4-2.2-0.5c-0.2,0-0.1-0.4,0-0.4
		c2.9,0,5,0,8.1,0c0.1,0,0.1,0.4-0.1,0.4c-1.2,0.1-1.8,0.3-2.2,0.5c-0.4,0.2-0.7,0.8-0.7,7v1.5h12v-1.5c0-6.3-0.3-6.9-0.7-7
		c-0.4-0.2-0.9-0.4-2.2-0.5c-0.2,0-0.2-0.4,0-0.4c2.9,0,5,0,8.1,0c0.1,0,0.1,0.4,0,0.4c-1.2,0.1-1.8,0.3-2.2,0.5
		c-0.4,0.2-0.7,0.8-0.7,7v4.7c0,6.3,0.3,6.8,0.7,7c0.4,0.2,0.9,0.4,2.2,0.5c0.2,0,0.2,0.4,0,0.4C386.8,26.3,384.8,26.3,381.8,26.3z"
		/>
	<path class="st2" d="M420.3,25.7c-0.2,0.4-0.6,0.6-1.4,0.6c-1.9,0-3.9-0.1-6.6-0.1c-2,0-3.1,0-5.3,0.1c-0.1,0-0.1-0.4,0-0.4
		c1.3-0.1,1.8-0.3,2.2-0.5c0.4-0.2,0.7-0.8,0.7-7v-4.7c0-6.3-0.3-6.9-0.7-7c-0.4-0.2-0.9-0.4-2.2-0.5c-0.1,0-0.1-0.4,0-0.4
		c2.5,0,6.2,0.1,8.2,0.1c2.7,0,3.8,0,4.8-0.2c0.1,0,0.2,0.1,0.2,0.1c-0.1,1.1-0.2,2.4-0.4,4.1c0,0.1-0.4,0.1-0.4-0.1
		c0-0.8-0.1-1.5-0.5-2c-0.5-0.6-1.5-0.9-3.8-0.9c-1.2,0-2.4,0-2.7,0.1c-0.1,0.3-0.1,1.6-0.1,3.6V15h2.6c3,0,3.4-0.4,3.6-1.5
		c0-0.1,0.4-0.1,0.4,0c-0.1,1.8-0.2,2.8-0.2,4.6c0,0.1-0.4,0.1-0.4,0c0-0.6-0.2-1.2-0.5-1.5c-0.3-0.3-0.8-0.5-3-0.5h-2.6v2.2
		c0,4.1,0.3,5.8,0.7,6.2c0.4,0.4,1.1,0.6,2.9,0.6c2,0,3.1-0.4,3.7-1c0.4-0.5,0.8-1.2,1-2.2c0-0.2,0.4-0.1,0.4,0.1
		C420.8,23.7,420.6,25.3,420.3,25.7z"/>
</g>
</svg>
